<?xml version="1.0" standalone="yes"?>

<svg version="1.1" fill="none" stroke="none" stroke-linecap="square" stroke-miterlimit="10" xmlns="http://www.w3.org/2000/svg" xmlns:xlink="http://www.w3.org/1999/xlink"><clipPath id="p.0"><path d="m0 0l1280.0 0l0 960.0l-1280.0 0l0 -960.0z" clip-rule="nonzero"></path></clipPath><g clip-path="url(#p.0)"><path fill="#000000" fill-opacity="0.0" d="m0 0l1280.0 0l0 960.0l-1280.0 0z" fill-rule="nonzero"></path><path fill="#000000" fill-opacity="0.0" d="m20.0 41.559055l70.11024 0l0 64.8819l-70.11024 0z" fill-rule="nonzero"></path><path fill="#000000" d="m52.016575 80.92l-0.0625 -1.390625q-0.296875 0.359375 -0.609375 0.65625q-0.3125 0.296875 -0.671875 0.515625q-0.359375 0.203125 -0.78125 0.3125q-0.40625 0.125 -0.90625 0.125q-0.84375 0 -1.5 -0.328125q-0.640625 -0.34375 -1.078125 -0.953125q-0.4375 -0.625 -0.671875 -1.5q-0.234375 -0.890625 -0.234375 -1.96875q0 -1.296875 0.359375 -2.25q0.375 -0.953125 1.015625 -1.578125q0.65625 -0.625 1.546875 -0.921875q0.890625 -0.3125 1.9375 -0.3125q0.359375 0 0.71875 0.046875q0.359375 0.046875 0.625 0.125l0 -3.6875l2.265625 0l0 13.109375l-1.953125 0zm-4.140625 -4.640625q0 0.78125 0.109375 1.34375q0.109375 0.546875 0.3125 0.90625q0.21875 0.34375 0.515625 0.515625q0.3125 0.15625 0.703125 0.15625q0.5625 0 1.078125 -0.46875q0.53125 -0.46875 1.109375 -1.265625l0 -4.125q-0.265625 -0.109375 -0.65625 -0.171875q-0.390625 -0.0625 -0.796875 -0.0625q-0.546875 0 -0.984375 0.234375q-0.4375 0.21875 -0.75 0.625q-0.296875 0.40625 -0.46875 1.0q-0.171875 0.578125 -0.171875 1.3125zm16.94479 -0.234375q0 1.296875 -0.375 2.25q-0.359375 0.9375 -1.0156212 1.5625q-0.640625 0.625 -1.53125 0.9375q-0.890625 0.296875 -1.9375 0.296875q-1.03125 0 -1.921875 -0.15625q-0.890625 -0.15625 -1.6875 -0.421875l0 -12.703125l2.25 0l0 3.078125l-0.09375 1.859375q0.515625 -0.65625 1.1875 -1.046875q0.6875 -0.40625 1.65625 -0.40625q0.828125 0 1.46875 0.328125q0.65625 0.328125 1.09375 0.953125q0.4531212 0.609375 0.6718712 1.5q0.234375 0.875 0.234375 1.96875zm-2.3749962 0.09375q0 -0.78125 -0.109375 -1.328125q-0.109375 -0.546875 -0.328125 -0.890625q-0.203125 -0.359375 -0.5 -0.515625q-0.296875 -0.171875 -0.6875 -0.171875q-0.578125 0 -1.109375 0.46875q-0.515625 0.453125 -1.109375 1.25l0 4.125q0.28125 0.09375 0.671875 0.171875q0.390625 0.0625 0.796875 0.0625q0.546875 0 0.984375 -0.21875q0.4375 -0.234375 0.75 -0.640625q0.3125 -0.40625 0.46875 -0.984375q0.171875 -0.59375 0.171875 -1.328125z" fill-rule="nonzero"></path><path fill="#000000" fill-opacity="0.0" d="m165.00787 20.566929l184.0 0l0 42.015747l-184.0 0z" fill-rule="nonzero"></path><path fill="#000000" d="m199.19484 45.947926q0 0.5 -0.171875 0.890625q-0.15625 0.390625 -0.453125 0.6875q-0.28125 0.296875 -0.671875 0.515625q-0.375 0.21875 -0.8125 0.359375q-0.421875 0.125 -0.875 0.1875q-0.453125 0.078125 -0.890625 0.078125q-0.953125 0 -1.75 -0.09375q-0.78125 -0.078125 -1.546875 -0.265625l0 -1.484375q0.8125 0.234375 1.625 0.359375q0.8125 0.109375 1.609375 0.109375q1.15625 0 1.703125 -0.3125q0.5625 -0.3125 0.5625 -0.890625q0 -0.25 -0.09375 -0.453125q-0.078125 -0.203125 -0.3125 -0.375q-0.234375 -0.1875 -0.71875 -0.375q-0.484375 -0.203125 -1.328125 -0.453125q-0.640625 -0.1875 -1.171875 -0.421875q-0.53125 -0.234375 -0.921875 -0.5625q-0.390625 -0.328125 -0.609375 -0.765625q-0.21875 -0.4375 -0.21875 -1.03125q0 -0.390625 0.171875 -0.84375q0.1875 -0.46875 0.625 -0.859375q0.4375 -0.40625 1.171875 -0.671875q0.75 -0.265625 1.859375 -0.265625q0.546875 0 1.21875 0.0625q0.671875 0.0625 1.390625 0.203125l0 1.4375q-0.765625 -0.171875 -1.453125 -0.265625q-0.671875 -0.09375 -1.171875 -0.09375q-0.609375 0 -1.03125 0.09375q-0.40625 0.09375 -0.65625 0.265625q-0.25 0.15625 -0.375 0.375q-0.109375 0.21875 -0.109375 0.46875q0 0.25 0.09375 0.453125q0.109375 0.203125 0.375 0.390625q0.265625 0.1875 0.734375 0.390625q0.46875 0.1875 1.234375 0.40625q0.828125 0.234375 1.390625 0.5q0.5625 0.265625 0.90625 0.59375q0.359375 0.328125 0.515625 0.734375q0.15625 0.40625 0.15625 0.921875zm10.366669 2.546875l-1.4375 0l-0.0625 -1.5q-0.421875 0.484375 -0.796875 0.8125q-0.375 0.3125 -0.75 0.515625q-0.359375 0.1875 -0.734375 0.265625q-0.375 0.078125 -0.796875 0.078125q-1.4375 0 -2.171875 -0.84375q-0.734375 -0.84375 -0.734375 -2.5625l0 -6.078125l1.609375 0l0 5.953125q0 2.140625 1.625 2.140625q0.296875 0 0.578125 -0.078125q0.28125 -0.09375 0.59375 -0.3125q0.3125 -0.21875 0.65625 -0.578125q0.359375 -0.375 0.8125 -0.953125l0 -6.171875l1.609375 0l0 9.3125zm10.726044 -4.828125q0 1.15625 -0.328125 2.078125q-0.3125 0.90625 -0.90625 1.546875q-0.578125 0.640625 -1.421875 0.984375q-0.84375 0.328125 -1.90625 0.328125q-0.828125 0 -1.6875 -0.15625q-0.859375 -0.15625 -1.703125 -0.5l0 -12.5625l1.609375 0l0 3.609375l-0.0625 1.71875q0.6875 -0.9375 1.484375 -1.3125q0.796875 -0.390625 1.703125 -0.390625q0.796875 0 1.390625 0.34375q0.609375 0.328125 1.015625 0.9375q0.40625 0.609375 0.609375 1.46875q0.203125 0.859375 0.203125 1.90625zm-1.640625 0.078125q0 -0.734375 -0.109375 -1.34375q-0.109375 -0.609375 -0.34375 -1.046875q-0.234375 -0.4375 -0.59375 -0.6875q-0.359375 -0.25 -0.859375 -0.25q-0.3125 0 -0.625 0.109375q-0.3125 0.09375 -0.65625 0.328125q-0.328125 0.21875 -0.703125 0.59375q-0.375 0.375 -0.8125 0.9375l0 4.515625q0.484375 0.1875 0.96875 0.296875q0.5 0.09375 0.9375 0.09375q0.5625 0 1.0625 -0.171875q0.5 -0.171875 0.890625 -0.578125q0.390625 -0.421875 0.609375 -1.09375q0.234375 -0.6875 0.234375 -1.703125zm11.319794 2.203125q0 0.5 -0.171875 0.890625q-0.15625 0.390625 -0.453125 0.6875q-0.28125 0.296875 -0.671875 0.515625q-0.375 0.21875 -0.8125 0.359375q-0.421875 0.125 -0.875 0.1875q-0.453125 0.078125 -0.890625 0.078125q-0.953125 0 -1.75 -0.09375q-0.78125 -0.078125 -1.546875 -0.265625l0 -1.484375q0.8125 0.234375 1.625 0.359375q0.8125 0.109375 1.609375 0.109375q1.15625 0 1.703125 -0.3125q0.5625 -0.3125 0.5625 -0.890625q0 -0.25 -0.09375 -0.453125q-0.078125 -0.203125 -0.3125 -0.375q-0.234375 -0.1875 -0.71875 -0.375q-0.484375 -0.203125 -1.328125 -0.453125q-0.640625 -0.1875 -1.171875 -0.421875q-0.53125 -0.234375 -0.921875 -0.5625q-0.390625 -0.328125 -0.609375 -0.765625q-0.21875 -0.4375 -0.21875 -1.03125q0 -0.390625 0.171875 -0.84375q0.1875 -0.46875 0.625 -0.859375q0.4375 -0.40625 1.171875 -0.671875q0.75 -0.265625 1.859375 -0.265625q0.546875 0 1.21875 0.0625q0.671875 0.0625 1.390625 0.203125l0 1.4375q-0.765625 -0.171875 -1.453125 -0.265625q-0.671875 -0.09375 -1.171875 -0.09375q-0.609375 0 -1.03125 0.09375q-0.40625 0.09375 -0.65625 0.265625q-0.25 0.15625 -0.375 0.375q-0.109375 0.21875 -0.109375 0.46875q0 0.25 0.09375 0.453125q0.109375 0.203125 0.375 0.390625q0.265625 0.1875 0.734375 0.390625q0.46875 0.1875 1.234375 0.40625q0.828125 0.234375 1.390625 0.5q0.5625 0.265625 0.90625 0.59375q0.359375 0.328125 0.515625 0.734375q0.15625 0.40625 0.15625 0.921875zm10.116669 2.203125q-0.625 0.234375 -1.296875 0.34375q-0.65625 0.125 -1.359375 0.125q-2.21875 0 -3.40625 -1.1875q-1.1875 -1.203125 -1.1875 -3.5q0 -1.109375 0.34375 -2.0q0.34375 -0.90625 0.953125 -1.546875q0.625 -0.640625 1.484375 -0.984375q0.875 -0.34375 1.90625 -0.34375q0.734375 0 1.359375 0.109375q0.625 0.09375 1.203125 0.3125l0 1.546875q-0.59375 -0.3125 -1.234375 -0.453125q-0.625 -0.15625 -1.28125 -0.15625q-0.625 0 -1.1875 0.25q-0.546875 0.234375 -0.96875 0.6875q-0.40625 0.4375 -0.65625 1.078125q-0.234375 0.640625 -0.234375 1.4375q0 1.6875 0.8125 2.53125q0.828125 0.84375 2.28125 0.84375q0.65625 0 1.265625 -0.140625q0.625 -0.15625 1.203125 -0.453125l0 1.5zm3.3979187 -8.96875l1.484375 0l0.046875 1.71875q0.828125 -1.0 1.625 -1.4375q0.796875 -0.453125 1.625 -0.453125q1.4375 0 2.1875 0.9375q0.75 0.9375 0.6875 2.78125l-1.625 0q0.015625 -1.21875 -0.375 -1.765625q-0.375 -0.5625 -1.109375 -0.5625q-0.328125 0 -0.65625 0.125q-0.328125 0.109375 -0.6875 0.375q-0.34375 0.25 -0.734375 0.65625q-0.390625 0.390625 -0.828125 0.953125l0 5.984375l-1.640625 0l0 -9.3125zm13.054184 1.328125l-2.7500153 0l0 -1.328125l4.3906403 0l0 7.96875l2.765625 0l0 1.34375l-7.4687653 0l0 -1.34375l3.0625153 0l0 -6.640625zm0.5625 -5.234375q0.28125 0 0.5 0.09375q0.234375 0.09375 0.40625 0.28125q0.171875 0.171875 0.265625 0.40625q0.109375 0.21875 0.109375 0.484375q0 0.265625 -0.109375 0.5q-0.09375 0.234375 -0.265625 0.40625q-0.171875 0.171875 -0.40625 0.28125q-0.21875 0.09375 -0.5 0.09375q-0.265625 0 -0.5 -0.09375q-0.234375 -0.109375 -0.40625 -0.28125q-0.171875 -0.171875 -0.26564026 -0.40625q-0.09375 -0.234375 -0.09375 -0.5q0 -0.265625 0.09375 -0.484375q0.09376526 -0.234375 0.26564026 -0.40625q0.171875 -0.1875 0.40625 -0.28125q0.234375 -0.09375 0.5 -0.09375zm14.476044 8.390625q0 1.25 -0.34375 2.1875q-0.34375 0.921875 -0.953125 1.53125q-0.609375 0.609375 -1.453125 0.921875q-0.828125 0.296875 -1.8125 0.296875q-0.4375 0 -0.890625 -0.046875q-0.4375 -0.046875 -0.890625 -0.15625l0 3.890625l-1.609375 0l0 -13.109375l1.4375 0l0.109375 1.5625q0.6875 -0.96875 1.46875 -1.34375q0.796875 -0.390625 1.71875 -0.390625q0.796875 0 1.390625 0.34375q0.609375 0.328125 1.015625 0.9375q0.40625 0.609375 0.609375 1.46875q0.203125 0.859375 0.203125 1.90625zm-1.640625 0.078125q0 -0.734375 -0.109375 -1.34375q-0.109375 -0.609375 -0.34375 -1.046875q-0.234375 -0.4375 -0.59375 -0.6875q-0.359375 -0.25 -0.859375 -0.25q-0.3125 0 -0.625 0.109375q-0.3125 0.09375 -0.65625 0.328125q-0.328125 0.21875 -0.703125 0.59375q-0.375 0.375 -0.8125 0.9375l0 4.515625q0.453125 0.1875 0.9375 0.296875q0.5 0.09375 0.96875 0.09375q1.3125 0 2.046875 -0.875q0.75 -0.890625 0.75 -2.671875zm11.444794 4.625q-0.546875 0.140625 -1.125 0.1875q-0.578125 0.0625 -1.1875 0.0625q-1.75 0 -2.625 -0.78125q-0.859375 -0.796875 -0.859375 -2.4375l0 -4.859375l-2.609375 0l0 -1.359375l2.609375 0l0 -2.5625l1.625 -0.421875l0 2.984375l4.171875 0l0 1.359375l-4.171875 0l0 4.71875q0 1.0 0.53125 1.5q0.53125 0.5 1.5625 0.5q0.453125 0 0.984375 -0.0625q0.53125 -0.078125 1.09375 -0.21875l0 1.390625zm5.9291687 -7.859375l-2.75 0l0 -1.328125l4.390625 0l0 7.96875l2.765625 0l0 1.34375l-7.46875 0l0 -1.34375l3.0625 0l0 -6.640625zm0.5625 -5.234375q0.28125 0 0.5 0.09375q0.234375 0.09375 0.40625 0.28125q0.171875 0.171875 0.265625 0.40625q0.109375 0.21875 0.109375 0.484375q0 0.265625 -0.109375 0.5q-0.09375 0.234375 -0.265625 0.40625q-0.171875 0.171875 -0.40625 0.28125q-0.21875 0.09375 -0.5 0.09375q-0.265625 0 -0.5 -0.09375q-0.234375 -0.109375 -0.40625 -0.28125q-0.171875 -0.171875 -0.265625 -0.40625q-0.09375 -0.234375 -0.09375 -0.5q0 -0.265625 0.09375 -0.484375q0.09375 -0.234375 0.265625 -0.40625q0.171875 -0.1875 0.40625 -0.28125q0.234375 -0.09375 0.5 -0.09375zm14.632294 8.484375q0 1.09375 -0.3125 2.0q-0.296875 0.890625 -0.875 1.546875q-0.578125 0.640625 -1.40625 1.0q-0.828125 0.359375 -1.875 0.359375q-1.0 0 -1.796875 -0.3125q-0.78125 -0.3125 -1.34375 -0.90625q-0.546875 -0.609375 -0.84375 -1.5q-0.28125 -0.890625 -0.28125 -2.0625q0 -1.078125 0.296875 -1.96875q0.3125 -0.90625 0.875 -1.546875q0.578125 -0.640625 1.40625 -1.0q0.828125 -0.359375 1.875 -0.359375q1.0 0 1.796875 0.3125q0.796875 0.3125 1.34375 0.921875q0.5625 0.59375 0.84375 1.484375q0.296875 0.890625 0.296875 2.03125zm-1.65625 0.078125q0 -0.859375 -0.1875 -1.5q-0.1875 -0.65625 -0.546875 -1.078125q-0.34375 -0.4375 -0.859375 -0.65625q-0.5 -0.21875 -1.125 -0.21875q-0.71875 0 -1.234375 0.28125q-0.515625 0.28125 -0.84375 0.765625q-0.328125 0.46875 -0.484375 1.09375q-0.15625 0.625 -0.15625 1.3125q0 0.859375 0.1875 1.515625q0.203125 0.640625 0.546875 1.078125q0.359375 0.421875 0.859375 0.640625q0.5 0.21875 1.125 0.21875q0.734375 0 1.25 -0.28125q0.515625 -0.28125 0.84375 -0.75q0.328125 -0.46875 0.46875 -1.09375q0.15625 -0.640625 0.15625 -1.328125zm3.8041687 -4.65625l1.4375 0l0.0625 1.5q0.40625 -0.484375 0.78125 -0.796875q0.390625 -0.328125 0.75 -0.515625q0.375 -0.203125 0.75 -0.28125q0.390625 -0.078125 0.796875 -0.078125q1.4375 0 2.171875 0.859375q0.734375 0.84375 0.734375 2.546875l0 6.078125l-1.609375 0l0 -5.953125q0 -1.09375 -0.40625 -1.609375q-0.40625 -0.53125 -1.21875 -0.53125q-0.296875 0 -0.578125 0.09375q-0.28125 0.09375 -0.59375 0.3125q-0.296875 0.203125 -0.65625 0.578125q-0.359375 0.375 -0.8125 0.9375l0 6.171875l-1.609375 0l0 -9.3125zm17.632294 6.765625q0 0.5 -0.171875 0.890625q-0.15625 0.390625 -0.453125 0.6875q-0.28125 0.296875 -0.671875 0.515625q-0.375 0.21875 -0.8125 0.359375q-0.421875 0.125 -0.875 0.1875q-0.453125 0.078125 -0.890625 0.078125q-0.953125 0 -1.75 -0.09375q-0.78125 -0.078125 -1.546875 -0.265625l0 -1.484375q0.8125 0.234375 1.625 0.359375q0.8125 0.109375 1.609375 0.109375q1.15625 0 1.703125 -0.3125q0.5625 -0.3125 0.5625 -0.890625q0 -0.25 -0.09375 -0.453125q-0.078125 -0.203125 -0.3125 -0.375q-0.234375 -0.1875 -0.71875 -0.375q-0.484375 -0.203125 -1.328125 -0.453125q-0.640625 -0.1875 -1.171875 -0.421875q-0.53125 -0.234375 -0.921875 -0.5625q-0.390625 -0.328125 -0.609375 -0.765625q-0.21875 -0.4375 -0.21875 -1.03125q0 -0.390625 0.171875 -0.84375q0.1875 -0.46875 0.625 -0.859375q0.4375 -0.40625 1.171875 -0.671875q0.75 -0.265625 1.859375 -0.265625q0.546875 0 1.21875 0.0625q0.671875 0.0625 1.390625 0.203125l0 1.4375q-0.765625 -0.171875 -1.453125 -0.265625q-0.671875 -0.09375 -1.171875 -0.09375q-0.609375 0 -1.03125 0.09375q-0.40625 0.09375 -0.65625 0.265625q-0.25 0.15625 -0.375 0.375q-0.109375 0.21875 -0.109375 0.46875q0 0.25 0.09375 0.453125q0.109375 0.203125 0.375 0.390625q0.265625 0.1875 0.734375 0.390625q0.46875 0.1875 1.234375 0.40625q0.828125 0.234375 1.390625 0.5q0.5625 0.265625 0.90625 0.59375q0.359375 0.328125 0.515625 0.734375q0.15625 0.40625 0.15625 0.921875z" fill-rule="nonzero"></path><path fill="#000000" fill-opacity="0.0" d="m500.0 25.133858l94.99213 0l0 64.88189l-94.99213 0z" fill-rule="nonzero"></path><path fill="#000000" d="m528.41534 64.494804l-2.609375 0l-3.734375 -9.421879l2.515625 0l1.953125 5.34375l0.59375 1.71875l0.578125 -1.65625l1.96875 -5.40625l2.4375 0l-3.703125 9.421879zm10.538513 -12.000004q0 0.296875 -0.125 0.578125q-0.109375 0.265625 -0.3125 0.46875q-0.1875 0.1875 -0.46875 0.3125q-0.265625 0.109375 -0.578125 0.109375q-0.3125 0 -0.59375 -0.109375q-0.265625 -0.125 -0.46875 -0.3125q-0.203125 -0.203125 -0.3125 -0.46875q-0.109375 -0.28125 -0.109375 -0.578125q0 -0.3125 0.109375 -0.578125q0.109375 -0.265625 0.3125 -0.46875q0.203125 -0.203125 0.46875 -0.3125q0.28125 -0.125 0.59375 -0.125q0.3125 0 0.578125 0.125q0.28125 0.109375 0.46875 0.3125q0.203125 0.203125 0.3125 0.46875q0.125 0.265625 0.125 0.578125zm-2.515625 4.34375l-2.65625 0l0 -1.765625l4.984375 0l0 7.65625l2.71875 0l0 1.7656288l-8.03125 0l0 -1.7656288l2.984375 0l0 -5.890625zm15.429199 2.21875q0 0.234375 -0.015625 0.609375q-0.015625 0.359375 -0.046875 0.6875l-6.1875 0q0 0.625 0.1875 1.109375q0.1875 0.46875 0.53125 0.78125q0.359375 0.3125 0.84375 0.484375q0.484375 0.171875 1.078125 0.171875q0.6875 0 1.46875 -0.109375q0.78125 -0.109375 1.625 -0.34375l0 1.7968788q-0.359375 0.09375 -0.78125 0.1875q-0.421875 0.078125 -0.875 0.140625q-0.4375 0.078125 -0.90625 0.109375q-0.453125 0.03125 -0.875 0.03125q-1.078125 0 -1.9375 -0.3125q-0.84375 -0.3125 -1.4375 -0.9062538q-0.59375 -0.59375 -0.90625 -1.46875q-0.3125 -0.890625 -0.3125 -2.046875q0 -1.15625 0.3125 -2.09375q0.3125 -0.9375 0.890625 -1.609375q0.578125 -0.671875 1.390625 -1.03125q0.828125 -0.375 1.828125 -0.375q1.015625 0 1.78125 0.3125q0.765625 0.296875 1.28125 0.859375q0.53125 0.5625 0.796875 1.328125q0.265625 0.765625 0.265625 1.6875zm-2.296875 -0.328125q0 -0.546875 -0.15625 -0.953125q-0.140625 -0.421875 -0.390625 -0.6875q-0.25 -0.28125 -0.59375 -0.40625q-0.34375 -0.125 -0.734375 -0.125q-0.84375 0 -1.390625 0.578125q-0.546875 0.5625 -0.65625 1.59375l3.921875 0zm12.085388 5.765629l-2.515625 0l-1.0 -2.9843788l-0.3125 -1.046875l-0.296875 1.078125l-0.96875 2.9531288l-2.53125 0l-1.328125 -9.421879l2.15625 0l0.671875 5.328125l0.15625 1.453125l0.375 -1.3125l0.953125 -2.859375l1.71875 0l1.015625 2.84375l0.4375 1.34375l0.171875 -1.5l0.5625 -5.296875l2.0625 0l-1.328125 9.421879zm10.288574 -2.7812538q0 0.8125 -0.359375 1.390625q-0.359375 0.5625 -0.953125 0.9218788q-0.578125 0.359375 -1.328125 0.515625q-0.75 0.171875 -1.515625 0.171875q-1.046875 0 -1.890625 -0.109375q-0.828125 -0.09375 -1.5625 -0.28125l0 -2.0312538q0.859375 0.359375 1.71875 0.53125q0.875 0.15625 1.65625 0.15625q0.890625 0 1.328125 -0.28125q0.4375 -0.296875 0.4375 -0.75q0 -0.203125 -0.09375 -0.375q-0.09375 -0.1875 -0.34375 -0.34375q-0.25 -0.171875 -0.71875 -0.34375q-0.46875 -0.171875 -1.21875 -0.375q-0.6875 -0.203125 -1.21875 -0.4375q-0.515625 -0.25 -0.859375 -0.578125q-0.34375 -0.34375 -0.515625 -0.78125q-0.171875 -0.4375 -0.171875 -1.03125q0 -0.578125 0.25 -1.09375q0.265625 -0.515625 0.78125 -0.890625q0.515625 -0.390625 1.28125 -0.609375q0.765625 -0.21875 1.796875 -0.21875q0.890625 0 1.578125 0.09375q0.6875 0.09375 1.21875 0.203125l0 1.84375q-0.8125 -0.265625 -1.53125 -0.359375q-0.703125 -0.109375 -1.390625 -0.109375q-0.703125 0 -1.125 0.25q-0.421875 0.25 -0.421875 0.6875q0 0.21875 0.078125 0.390625q0.09375 0.15625 0.34375 0.3125q0.25 0.15625 0.6875 0.328125q0.4375 0.171875 1.15625 0.375q0.828125 0.234375 1.375 0.5q0.5625 0.265625 0.890625 0.609375q0.34375 0.328125 0.484375 0.75q0.15625 0.421875 0.15625 0.96875z" fill-rule="nonzero"></path><path fill="#000000" fill-opacity="0.0" d="m239.50394 301.6378l89.00787 0l0 54.015747l-89.00787 0z" fill-rule="nonzero"></path><path fill="#000000" d="m267.86465 330.12817q0 0.234375 -0.015625 0.609375q-0.015625 0.359375 -0.046875 0.6875l-6.1875 0q0 0.625 0.1875 1.109375q0.1875 0.46875 0.53125 0.78125q0.359375 0.3125 0.84375 0.484375q0.484375 0.171875 1.078125 0.171875q0.6875 0 1.46875 -0.109375q0.78125 -0.109375 1.625 -0.34375l0 1.796875q-0.359375 0.09375 -0.78125 0.1875q-0.421875 0.078125 -0.875 0.140625q-0.4375 0.078125 -0.90625 0.109375q-0.453125 0.03125 -0.875 0.03125q-1.078125 0 -1.9375 -0.3125q-0.84375 -0.3125 -1.4375 -0.90625q-0.59375 -0.59375 -0.90625 -1.46875q-0.3125 -0.890625 -0.3125 -2.046875q0 -1.15625 0.3125 -2.09375q0.3125 -0.9375 0.890625 -1.609375q0.578125 -0.671875 1.390625 -1.03125q0.828125 -0.375 1.828125 -0.375q1.015625 0 1.78125 0.3125q0.765625 0.296875 1.28125 0.859375q0.53125 0.5625 0.796875 1.328125q0.265625 0.765625 0.265625 1.6875zm-2.296875 -0.328125q0 -0.546875 -0.15625 -0.953125q-0.140625 -0.421875 -0.390625 -0.6875q-0.25 -0.28125 -0.59375 -0.40625q-0.34375 -0.125 -0.734375 -0.125q-0.84375 0 -1.390625 0.578125q-0.546875 0.5625 -0.65625 1.59375l3.921875 0zm9.616669 5.765625l-2.609375 0l-3.734375 -9.421875l2.515625 0l1.953125 5.34375l0.59375 1.71875l0.578125 -1.65625l1.96875 -5.40625l2.4375 0l-3.703125 9.421875zm13.194794 -5.4375q0 0.234375 -0.015625 0.609375q-0.015625 0.359375 -0.046875 0.6875l-6.1875 0q0 0.625 0.1875 1.109375q0.1875 0.46875 0.53125 0.78125q0.359375 0.3125 0.84375 0.484375q0.484375 0.171875 1.078125 0.171875q0.6875 0 1.46875 -0.109375q0.78125 -0.109375 1.625 -0.34375l0 1.796875q-0.359375 0.09375 -0.78125 0.1875q-0.421875 0.078125 -0.875 0.140625q-0.4375 0.078125 -0.90625 0.109375q-0.453125 0.03125 -0.875 0.03125q-1.078125 0 -1.9375 -0.3125q-0.84375 -0.3125 -1.4375 -0.90625q-0.59375 -0.59375 -0.90625 -1.46875q-0.3125 -0.890625 -0.3125 -2.046875q0 -1.15625 0.3125 -2.09375q0.3125 -0.9375 0.890625 -1.609375q0.578125 -0.671875 1.390625 -1.03125q0.828125 -0.375 1.828125 -0.375q1.015625 0 1.78125 0.3125q0.765625 0.296875 1.28125 0.859375q0.53125 0.5625 0.796875 1.328125q0.265625 0.765625 0.265625 1.6875zm-2.296875 -0.328125q0 -0.546875 -0.15625 -0.953125q-0.140625 -0.421875 -0.390625 -0.6875q-0.25 -0.28125 -0.59375 -0.40625q-0.34375 -0.125 -0.734375 -0.125q-0.84375 0 -1.390625 0.578125q-0.546875 0.5625 -0.65625 1.59375l3.921875 0zm9.960419 5.765625l0 -6.140625q0 -1.546875 -1.140625 -1.546875q-0.578125 0 -1.109375 0.46875q-0.515625 0.453125 -1.109375 1.25l0 5.96875l-2.25 0l0 -9.421875l1.953125 0l0.046875 1.390625q0.296875 -0.359375 0.609375 -0.65625q0.3125 -0.296875 0.671875 -0.5q0.359375 -0.21875 0.765625 -0.328125q0.421875 -0.109375 0.953125 -0.109375q0.71875 0 1.25 0.234375q0.546875 0.234375 0.90625 0.671875q0.359375 0.421875 0.53125 1.03125q0.1875 0.609375 0.1875 1.359375l0 6.328125l-2.265625 0zm12.413544 -0.09375q-0.609375 0.140625 -1.234375 0.21875q-0.625 0.09375 -1.171875 0.09375q-0.9375 0 -1.609375 -0.203125q-0.671875 -0.1875 -1.109375 -0.578125q-0.4375 -0.40625 -0.65625 -1.015625q-0.203125 -0.625 -0.203125 -1.484375l0 -4.59375l-2.53125 0l0 -1.765625l2.53125 0l0 -2.421875l2.328125 -0.59375l0 3.015625l3.65625 0l0 1.765625l-3.65625 0l0 4.421875q0 0.8125 0.359375 1.234375q0.375 0.40625 1.25 0.40625q0.5625 0 1.078125 -0.09375q0.53125 -0.09375 0.96875 -0.21875l0 1.8125z" fill-rule="nonzero"></path><path fill="#000000" fill-opacity="0.0" d="m90.11024 74.0l409.88977 -16.40945" fill-rule="nonzero"></path><path stroke="#000000" stroke-width="1.0" stroke-linejoin="round" stroke-linecap="butt" d="m90.11024 74.0l403.89456 -16.169441" fill-rule="evenodd"></path><path fill="#000000" stroke="#000000" stroke-width="1.0" stroke-linecap="butt" d="m494.07086 59.480972l4.4684143 -1.8319435l-4.6005554 -1.4688759z" fill-rule="evenodd"></path><path fill="#000000" fill-opacity="0.0" d="m547.49603 90.01575l-218.9921 238.64566" fill-rule="nonzero"></path><path stroke="#000000" stroke-width="1.0" stroke-linejoin="round" stroke-linecap="butt" d="m547.49603 90.01575l-214.9354 234.22491" fill-rule="evenodd"></path><path fill="#000000" stroke="#000000" stroke-width="1.0" stroke-linecap="butt" d="m331.34366 323.12387l-1.8513184 4.4604187l4.2852783 -2.2268677z" fill-rule="evenodd"></path><path fill="#000000" fill-opacity="0.0" d="m432.0 193.65355l129.98425 0l0 46.992126l-129.98425 0z" fill-rule="nonzero"></path><path fill="#000000" d="m456.97858 219.60086q0 -1.1875 0.3125 -2.109375q0.328125 -0.921875 0.921875 -1.546875q0.609375 -0.640625 1.4375 -0.96875q0.84375 -0.328125 1.875 -0.328125q0.453125 0 0.875 0.0625q0.4375 0.046875 0.859375 0.171875l0 -3.921875l1.625 0l0 13.109375l-1.453125 0l-0.0625 -1.765625q-0.671875 0.984375 -1.46875 1.46875q-0.78125 0.46875 -1.703125 0.46875q-0.796875 0 -1.40625 -0.328125q-0.59375 -0.34375 -1.0 -0.953125q-0.40625 -0.609375 -0.609375 -1.453125q-0.203125 -0.859375 -0.203125 -1.90625zm1.640625 -0.09375q0 1.6875 0.5 2.515625q0.5 0.828125 1.40625 0.828125q0.609375 0 1.296875 -0.546875q0.6875 -0.546875 1.4375 -1.625l0 -4.3125q-0.40625 -0.1875 -0.890625 -0.28125q-0.484375 -0.109375 -0.953125 -0.109375q-1.3125 0 -2.0625 0.859375q-0.734375 0.84375 -0.734375 2.671875zm12.257294 -3.421875l-2.75 0l0 -1.328125l4.390625 0l0 7.96875l2.765625 0l0 1.34375l-7.46875 0l0 -1.34375l3.0625 0l0 -6.640625zm0.5625 -5.234375q0.28125 0 0.5 0.09375q0.234375 0.09375 0.40625 0.28125q0.171875 0.171875 0.265625 0.40625q0.109375 0.21875 0.109375 0.484375q0 0.265625 -0.109375 0.5q-0.09375 0.234375 -0.265625 0.40625q-0.171875 0.171875 -0.40625 0.28125q-0.21875 0.09375 -0.5 0.09375q-0.265625 0 -0.5 -0.09375q-0.234375 -0.109375 -0.40625 -0.28125q-0.171875 -0.171875 -0.265625 -0.40625q-0.09375 -0.234375 -0.09375 -0.5q0 -0.265625 0.09375 -0.484375q0.09375 -0.234375 0.265625 -0.40625q0.171875 -0.1875 0.40625 -0.28125q0.234375 -0.09375 0.5 -0.09375zm13.897919 10.671875q0 0.5 -0.171875 0.890625q-0.15625 0.390625 -0.453125 0.6875q-0.28125 0.296875 -0.671875 0.515625q-0.375 0.21875 -0.8125 0.359375q-0.421875 0.125 -0.875 0.1875q-0.453125 0.078125 -0.890625 0.078125q-0.953125 0 -1.75 -0.09375q-0.78125 -0.078125 -1.546875 -0.265625l0 -1.484375q0.8125 0.234375 1.625 0.359375q0.8125 0.109375 1.609375 0.109375q1.15625 0 1.703125 -0.3125q0.5625 -0.3125 0.5625 -0.890625q0 -0.25 -0.09375 -0.453125q-0.078125 -0.203125 -0.3125 -0.375q-0.234375 -0.1875 -0.71875 -0.375q-0.484375 -0.203125 -1.328125 -0.453125q-0.640625 -0.1875 -1.171875 -0.421875q-0.53125 -0.234375 -0.921875 -0.5625q-0.390625 -0.328125 -0.609375 -0.765625q-0.21875 -0.4375 -0.21875 -1.03125q0 -0.390625 0.171875 -0.84375q0.1875 -0.46875 0.625 -0.859375q0.4375 -0.40625 1.171875 -0.671875q0.75 -0.265625 1.859375 -0.265625q0.546875 0 1.21875 0.0625q0.671875 0.0625 1.390625 0.203125l0 1.4375q-0.765625 -0.171875 -1.453125 -0.265625q-0.671875 -0.09375 -1.171875 -0.09375q-0.609375 0 -1.03125 0.09375q-0.40625 0.09375 -0.65625 0.265625q-0.25 0.15625 -0.375 0.375q-0.109375 0.21875 -0.109375 0.46875q0 0.25 0.09375 0.453125q0.109375 0.203125 0.375 0.390625q0.265625 0.1875 0.734375 0.390625q0.46875 0.1875 1.234375 0.40625q0.828125 0.234375 1.390625 0.5q0.5625 0.265625 0.90625 0.59375q0.359375 0.328125 0.515625 0.734375q0.15625 0.40625 0.15625 0.921875zm10.835419 -2.28125q0 1.25 -0.34375 2.1875q-0.34375 0.921875 -0.953125 1.53125q-0.609375 0.609375 -1.453125 0.921875q-0.828125 0.296875 -1.8125 0.296875q-0.4375 0 -0.890625 -0.046875q-0.4375 -0.046875 -0.890625 -0.15625l0 3.890625l-1.609375 0l0 -13.109375l1.4375 0l0.109375 1.5625q0.6875 -0.96875 1.46875 -1.34375q0.796875 -0.390625 1.71875 -0.390625q0.796875 0 1.390625 0.34375q0.609375 0.328125 1.015625 0.9375q0.40625 0.609375 0.609375 1.46875q0.203125 0.859375 0.203125 1.90625zm-1.640625 0.078125q0 -0.734375 -0.109375 -1.34375q-0.109375 -0.609375 -0.34375 -1.046875q-0.234375 -0.4375 -0.59375 -0.6875q-0.359375 -0.25 -0.859375 -0.25q-0.3125 0 -0.625 0.109375q-0.3125 0.09375 -0.65625 0.328125q-0.328125 0.21875 -0.703125 0.59375q-0.375 0.375 -0.8125 0.9375l0 4.515625q0.453125 0.1875 0.9375 0.296875q0.5 0.09375 0.96875 0.09375q1.3125 0 2.046875 -0.875q0.75 -0.890625 0.75 -2.671875zm9.929169 4.75l-0.03125 -1.25q-0.765625 0.75 -1.546875 1.09375q-0.78125 0.328125 -1.65625 0.328125q-0.796875 0 -1.359375 -0.203125q-0.5625 -0.203125 -0.9375 -0.5625q-0.359375 -0.359375 -0.53125 -0.84375q-0.171875 -0.484375 -0.171875 -1.046875q0 -1.40625 1.046875 -2.1875q1.046875 -0.796875 3.078125 -0.796875l1.9375 0l0 -0.828125q0 -0.8125 -0.53125 -1.3125q-0.53125 -0.5 -1.609375 -0.5q-0.796875 0 -1.5625 0.1875q-0.765625 0.171875 -1.578125 0.484375l0 -1.453125q0.296875 -0.109375 0.671875 -0.21875q0.390625 -0.109375 0.796875 -0.1875q0.421875 -0.078125 0.875 -0.125q0.453125 -0.0625 0.921875 -0.0625q0.84375 0 1.515625 0.1875q0.6875 0.1875 1.15625 0.578125q0.46875 0.375 0.71875 0.953125q0.25 0.5625 0.25 1.34375l0 6.421875l-1.453125 0zm-0.171875 -4.234375l-2.0625 0q-0.59375 0 -1.03125 0.125q-0.4375 0.109375 -0.71875 0.34375q-0.28125 0.21875 -0.421875 0.53125q-0.125 0.296875 -0.125 0.6875q0 0.28125 0.078125 0.53125q0.09375 0.234375 0.28125 0.421875q0.1875 0.1875 0.484375 0.3125q0.296875 0.109375 0.71875 0.109375q0.5625 0 1.28125 -0.34375q0.71875 -0.34375 1.515625 -1.078125l0 -1.640625zm11.944763 4.109375q-0.546875 0.140625 -1.125 0.1875q-0.578125 0.0625 -1.1875 0.0625q-1.75 0 -2.6249695 -0.78125q-0.859375 -0.796875 -0.859375 -2.4375l0 -4.859375l-2.609375 0l0 -1.359375l2.609375 0l0 -2.5625l1.6249695 -0.421875l0 2.984375l4.171875 0l0 1.359375l-4.171875 0l0 4.71875q0 1.0 0.53125 1.5q0.53125 0.5 1.5625 0.5q0.453125 0 0.984375 -0.0625q0.53125 -0.078125 1.09375 -0.21875l0 1.390625zm9.991699 -0.21875q-0.625 0.234375 -1.296875 0.34375q-0.65625 0.125 -1.359375 0.125q-2.21875 0 -3.40625 -1.1875q-1.1875 -1.203125 -1.1875 -3.5q0 -1.109375 0.34375 -2.0q0.34375 -0.90625 0.953125 -1.546875q0.625 -0.640625 1.484375 -0.984375q0.875 -0.34375 1.90625 -0.34375q0.734375 0 1.359375 0.109375q0.625 0.09375 1.203125 0.3125l0 1.546875q-0.59375 -0.3125 -1.234375 -0.453125q-0.625 -0.15625 -1.28125 -0.15625q-0.625 0 -1.1875 0.25q-0.546875 0.234375 -0.96875 0.6875q-0.40625 0.4375 -0.65625 1.078125q-0.234375 0.640625 -0.234375 1.4375q0 1.6875 0.8125 2.53125q0.828125 0.84375 2.28125 0.84375q0.65625 0 1.265625 -0.140625q0.625 -0.15625 1.203125 -0.453125l0 1.5zm10.507324 0.34375l-1.609375 0l0 -5.953125q0 -1.0625 -0.40625 -1.59375q-0.40625 -0.546875 -1.15625 -0.546875q-0.328125 0 -0.609375 0.09375q-0.28125 0.09375 -0.59375 0.3125q-0.296875 0.203125 -0.65625 0.578125q-0.359375 0.375 -0.84375 0.9375l0 6.171875l-1.609375 0l0 -13.109375l1.609375 0l0 3.796875l-0.046875 1.46875q0.375 -0.453125 0.734375 -0.765625q0.375 -0.3125 0.734375 -0.5q0.375 -0.203125 0.75 -0.28125q0.390625 -0.09375 0.796875 -0.09375q1.390625 0 2.140625 0.859375q0.765625 0.84375 0.765625 2.546875l0 6.078125z" fill-rule="nonzero"></path><path fill="#000000" fill-opacity="0.0" d="m239.50394 328.64566l-184.44095 -222.20471" fill-rule="nonzero"></path><path stroke="#000000" stroke-width="1.0" stroke-linejoin="round" stroke-linecap="butt" d="m239.50394 328.64566l-180.6088 -217.58794" fill-rule="evenodd"></path><path fill="#000000" stroke="#000000" stroke-width="1.0" stroke-linecap="butt" d="m60.166092 110.00277l-4.1693954 -2.436943l1.6275024 4.5468445z" fill-rule="evenodd"></path><path fill="#000000" fill-opacity="0.0" d="m10.0 201.65355l127.52756 0l0 46.992126l-127.52756 0z" fill-rule="nonzero"></path><path fill="#000000" d="m30.60231 232.06961l0 -6.6875q0 -0.4375 -0.03125 -0.71875q-0.03125 -0.28125 -0.109375 -0.4375q-0.0625 -0.15625 -0.171875 -0.21875q-0.109375 -0.078125 -0.265625 -0.078125q-0.1875 0 -0.34375 0.125q-0.15625 0.109375 -0.34375 0.359375q-0.171875 0.25 -0.390625 0.65625q-0.21875 0.40625 -0.515625 1.015625l0 5.984375l-1.46875 0l0 -6.515625q0 -0.5 -0.03125 -0.8125q-0.03125 -0.328125 -0.109375 -0.5q-0.0625 -0.171875 -0.1875 -0.234375q-0.109375 -0.078125 -0.265625 -0.078125q-0.15625 0 -0.3125 0.09375q-0.140625 0.09375 -0.328125 0.34375q-0.171875 0.234375 -0.40625 0.65625q-0.21875 0.40625 -0.53125 1.0625l0 5.984375l-1.484375 0l0 -9.3125l1.234375 0l0.078125 1.765625q0.25 -0.53125 0.46875 -0.890625q0.234375 -0.375 0.46875 -0.59375q0.25 -0.234375 0.515625 -0.34375q0.28125 -0.109375 0.609375 -0.109375q0.75 0 1.140625 0.5q0.390625 0.484375 0.390625 1.515625q0.21875 -0.484375 0.4375 -0.859375q0.21875 -0.375 0.453125 -0.625q0.25 -0.265625 0.546875 -0.390625q0.296875 -0.140625 0.6875 -0.140625q1.75 0 1.75 2.703125l0 6.78125l-1.484375 0zm11.101044 0l-1.4375 0l-0.0625 -1.5q-0.421875 0.484375 -0.796875 0.8125q-0.375 0.3125 -0.75 0.515625q-0.359375 0.1875 -0.734375 0.265625q-0.375 0.078125 -0.796875 0.078125q-1.4375 0 -2.171875 -0.84375q-0.734375 -0.84375 -0.734375 -2.5625l0 -6.078125l1.609375 0l0 5.953125q0 2.140625 1.625 2.140625q0.296875 0 0.578125 -0.078125q0.28125 -0.09375 0.59375 -0.3125q0.3125 -0.21875 0.65625 -0.578125q0.359375 -0.375 0.8125 -0.953125l0 -6.171875l1.609375 0l0 9.3125zm10.272919 -0.125q-0.546875 0.140625 -1.125 0.1875q-0.578125 0.0625 -1.1875 0.0625q-1.75 0 -2.625 -0.78125q-0.859375 -0.796875 -0.859375 -2.4375l0 -4.859375l-2.609375 0l0 -1.359375l2.609375 0l0 -2.5625l1.625 -0.421875l0 2.984375l4.171875 0l0 1.359375l-4.171875 0l0 4.71875q0 1.0 0.53125 1.5q0.53125 0.5 1.5625 0.5q0.453125 0 0.984375 -0.0625q0.53125 -0.078125 1.09375 -0.21875l0 1.390625zm8.741669 0.125l-0.03125 -1.25q-0.765625 0.75 -1.546875 1.09375q-0.78125 0.328125 -1.65625 0.328125q-0.796875 0 -1.359375 -0.203125q-0.5625 -0.203125 -0.9375 -0.5625q-0.359375 -0.359375 -0.53125 -0.84375q-0.171875 -0.484375 -0.171875 -1.046875q0 -1.40625 1.046875 -2.1875q1.046875 -0.796875 3.078125 -0.796875l1.9375 0l0 -0.828125q0 -0.8125 -0.53125 -1.3125q-0.53125 -0.5 -1.609375 -0.5q-0.796875 0 -1.5625 0.1875q-0.765625 0.171875 -1.578125 0.484375l0 -1.453125q0.296875 -0.109375 0.671875 -0.21875q0.390625 -0.109375 0.796875 -0.1875q0.421875 -0.078125 0.875 -0.125q0.453125 -0.0625 0.921875 -0.0625q0.84375 0 1.515625 0.1875q0.6875 0.1875 1.15625 0.578125q0.46875 0.375 0.71875 0.953125q0.25 0.5625 0.25 1.34375l0 6.421875l-1.453125 0zm-0.171875 -4.234375l-2.0625 0q-0.59375 0 -1.03125 0.125q-0.4375 0.109375 -0.71875 0.34375q-0.28125 0.21875 -0.421875 0.53125q-0.125 0.296875 -0.125 0.6875q0 0.28125 0.078125 0.53125q0.09375 0.234375 0.28125 0.421875q0.1875 0.1875 0.484375 0.3125q0.296875 0.109375 0.71875 0.109375q0.5625 0 1.28125 -0.34375q0.71875 -0.34375 1.515625 -1.078125l0 -1.640625zm11.944794 4.109375q-0.546875 0.140625 -1.125 0.1875q-0.578125 0.0625 -1.1875 0.0625q-1.75 0 -2.625 -0.78125q-0.859375 -0.796875 -0.859375 -2.4375l0 -4.859375l-2.609375 0l0 -1.359375l2.609375 0l0 -2.5625l1.625 -0.421875l0 2.984375l4.171875 0l0 1.359375l-4.171875 0l0 4.71875q0 1.0 0.53125 1.5q0.53125 0.5 1.5625 0.5q0.453125 0 0.984375 -0.0625q0.53125 -0.078125 1.09375 -0.21875l0 1.390625zm10.632294 -5.03125q0 0.34375 -0.015625 0.578125q-0.015625 0.234375 -0.03125 0.4375l-6.53125 0q0 1.4375 0.796875 2.203125q0.796875 0.765625 2.296875 0.765625q0.40625 0 0.8125 -0.03125q0.40625 -0.046875 0.78125 -0.09375q0.390625 -0.0625 0.734375 -0.125q0.34375 -0.078125 0.640625 -0.15625l0 1.328125q-0.65625 0.1875 -1.484375 0.296875q-0.828125 0.125 -1.71875 0.125q-1.203125 0 -2.0625 -0.328125q-0.859375 -0.328125 -1.421875 -0.9375q-0.546875 -0.625 -0.8125 -1.515625q-0.265625 -0.890625 -0.265625 -2.03125q0 -0.984375 0.28125 -1.859375q0.296875 -0.875 0.828125 -1.53125q0.546875 -0.671875 1.328125 -1.0625q0.796875 -0.390625 1.796875 -0.390625q0.984375 0 1.734375 0.3125q0.75 0.296875 1.265625 0.859375q0.515625 0.5625 0.78125 1.375q0.265625 0.796875 0.265625 1.78125zm-1.6875 -0.21875q0.03125 -0.625 -0.125 -1.140625q-0.140625 -0.515625 -0.453125 -0.890625q-0.3125 -0.375 -0.78125 -0.578125q-0.453125 -0.203125 -1.078125 -0.203125q-0.515625 0 -0.953125 0.203125q-0.4375 0.203125 -0.765625 0.578125q-0.3125 0.359375 -0.5 0.890625q-0.1875 0.515625 -0.234375 1.140625l4.890625 0zm11.444794 2.828125q0 0.5 -0.171875 0.890625q-0.15625 0.390625 -0.453125 0.6875q-0.28125 0.296875 -0.671875 0.515625q-0.375 0.21875 -0.8125 0.359375q-0.421875 0.125 -0.875 0.1875q-0.453125 0.078125 -0.890625 0.078125q-0.953125 0 -1.75 -0.09375q-0.78125 -0.078125 -1.546875 -0.265625l0 -1.484375q0.8125 0.234375 1.625 0.359375q0.8125 0.109375 1.609375 0.109375q1.15625 0 1.703125 -0.3125q0.5625 -0.3125 0.5625 -0.890625q0 -0.25 -0.09375 -0.453125q-0.078125 -0.203125 -0.3125 -0.375q-0.234375 -0.1875 -0.71875 -0.375q-0.484375 -0.203125 -1.328125 -0.453125q-0.640625 -0.1875 -1.171875 -0.421875q-0.53125 -0.234375 -0.921875 -0.5625q-0.390625 -0.328125 -0.609375 -0.765625q-0.21875 -0.4375 -0.21875 -1.03125q0 -0.390625 0.171875 -0.84375q0.1875 -0.46875 0.625 -0.859375q0.4375 -0.40625 1.171875 -0.671875q0.75 -0.265625 1.859375 -0.265625q0.546875 0 1.21875 0.0625q0.671875 0.0625 1.390625 0.203125l0 1.4375q-0.765625 -0.171875 -1.453125 -0.265625q-0.671875 -0.09375 -1.171875 -0.09375q-0.609375 0 -1.03125 0.09375q-0.40625 0.09375 -0.65625 0.265625q-0.25 0.15625 -0.375 0.375q-0.109375 0.21875 -0.109375 0.46875q0 0.25 0.09375 0.453125q0.109375 0.203125 0.375 0.390625q0.265625 0.1875 0.734375 0.390625q0.46875 0.1875 1.234375 0.40625q0.828125 0.234375 1.390625 0.5q0.5625 0.265625 0.90625 0.59375q0.359375 0.328125 0.515625 0.734375q0.15625 0.40625 0.15625 0.921875zm12.670837 -1.921875q0 -1.1875 0.3125 -2.109375q0.328125 -0.921875 0.921875 -1.546875q0.609375 -0.640625 1.4375 -0.96875q0.84375 -0.328125 1.875 -0.328125q0.453125 0 0.875 0.0625q0.4375 0.046875 0.859375 0.171875l0 -3.921875l1.625 0l0 13.109375l-1.453125 0l-0.0625 -1.765625q-0.671875 0.984375 -1.46875 1.46875q-0.78125 0.46875 -1.703125 0.46875q-0.796875 0 -1.40625 -0.328125q-0.59375 -0.34375 -1.0 -0.953125q-0.40625 -0.609375 -0.609375 -1.453125q-0.203125 -0.859375 -0.203125 -1.90625zm1.640625 -0.09375q0 1.6875 0.5 2.515625q0.5 0.828125 1.40625 0.828125q0.609375 0 1.296875 -0.546875q0.6875 -0.546875 1.4375 -1.625l0 -4.3125q-0.40625 -0.1875 -0.890625 -0.28125q-0.484375 -0.109375 -0.953125 -0.109375q-1.3125 0 -2.0625 0.859375q-0.734375 0.84375 -0.734375 2.671875zm17.038544 -0.265625q0 1.15625 -0.328125 2.078125q-0.3125 0.90625 -0.90625 1.546875q-0.578125 0.640625 -1.421875 0.984375q-0.84375 0.328125 -1.90625 0.328125q-0.828125 0 -1.6875 -0.15625q-0.859375 -0.15625 -1.703125 -0.5l0 -12.5625l1.609375 0l0 3.609375l-0.0625 1.71875q0.6875 -0.9375 1.484375 -1.3125q0.796875 -0.390625 1.703125 -0.390625q0.796875 0 1.390625 0.34375q0.609375 0.328125 1.015625 0.9375q0.40625 0.609375 0.609375 1.46875q0.203125 0.859375 0.203125 1.90625zm-1.640625 0.078125q0 -0.734375 -0.109375 -1.34375q-0.109375 -0.609375 -0.34375 -1.046875q-0.234375 -0.4375 -0.59375 -0.6875q-0.359375 -0.25 -0.859375 -0.25q-0.3125 0 -0.625 0.109375q-0.3125 0.09375 -0.65625 0.328125q-0.328125 0.21875 -0.703125 0.59375q-0.375 0.375 -0.8125 0.9375l0 4.515625q0.484375 0.1875 0.96875 0.296875q0.5 0.09375 0.9375 0.09375q0.5625 0 1.0625 -0.171875q0.5 -0.171875 0.890625 -0.578125q0.390625 -0.421875 0.609375 -1.09375q0.234375 -0.6875 0.234375 -1.703125z" fill-rule="nonzero"></path></g></svg>

